<?xml version="1.0" encoding="utf-8"?>
<!-- Generator: Adobe Illustrator 16.0.0, SVG Export Plug-In . SVG Version: 6.00 Build 0)  -->
<!DOCTYPE svg PUBLIC "-//W3C//DTD SVG 1.1//EN" "http://www.w3.org/Graphics/SVG/1.1/DTD/svg11.dtd">
<svg version="1.1" id="Layer_1" xmlns="http://www.w3.org/2000/svg" xmlns:xlink="http://www.w3.org/1999/xlink" x="0px" y="0px"
	 width="50px" height="50px" viewBox="359 359 50 50" enable-background="new 359 359 50 50" xml:space="preserve">
<title></title>
<g id="icomoon-ignore">
</g>
<path d="M406.399,378.779c-0.242-0.742-0.882-1.279-1.649-1.394l-13.065-1.905l-5.843-11.838c-0.346-0.703-1.062-1.138-1.828-1.138
	c-0.767,0-1.496,0.448-1.828,1.138l-5.843,11.838l-13.091,1.905c-0.767,0.115-1.407,0.652-1.649,1.394
	c-0.243,0.741-0.039,1.547,0.524,2.097l9.461,9.206l-2.237,13.015c-0.128,0.768,0.179,1.547,0.818,2.008
	c0.626,0.46,1.47,0.523,2.161,0.153l11.685-6.15l11.686,6.15c0.294,0.153,0.626,0.229,0.945,0.229c0.422,0,0.844-0.127,1.202-0.396
	c0.626-0.461,0.946-1.228,0.818-2.008l-2.237-13.015l9.461-9.206C406.438,380.326,406.642,379.52,406.399,378.779L406.399,378.779z
	 M392.796,387.907c-0.486,0.474-0.703,1.15-0.589,1.815l1.714,9.985l-8.976-4.718c-0.294-0.153-0.625-0.23-0.945-0.23
	c-0.332,0-0.652,0.077-0.946,0.23l-8.975,4.718l1.713-9.985c0.115-0.665-0.103-1.342-0.588-1.815l-7.262-7.07l10.036-1.47
	c0.665-0.102,1.24-0.511,1.534-1.112l4.487-9.103l4.487,9.09c0.294,0.601,0.869,1.023,1.534,1.112l10.036,1.47L392.796,387.907
	L392.796,387.907z"/>
</svg>
